Coordinates
version=1
nRows=16
nColumns=24
inDegrees=yes

Units are S.I. units (second, meters, Newtons, ...)
If the header above contains a line with 'inDegrees', this indicates whether rotational values are in degrees (yes) or radians (no).

endheader
time	pelvis_tilt	pelvis_list	pelvis_rotation	pelvis_tx	pelvis_ty	pelvis_tz	hip_flexion_r	hip_adduction_r	hip_rotation_r	knee_angle_r	ankle_angle_r	subtalar_angle_r	mtp_angle_r	hip_flexion_l	hip_adduction_l	hip_rotation_l	knee_angle_l	ankle_angle_l	subtalar_angle_l	mtp_angle_l	lumbar_extension	lumbar_bending	lumbar_rotation
3.275000	9.843930	1.313470	-181.186350	0.284545	0.760128	-1.210518	43.266239	-19.877299	-20.954951	-57.779789	18.504983	7.215045	0.000000	43.333868	-25.156411	-20.641304	-57.988618	19.027915	13.726366	0.000000	-5.295392	1.744808	1.792164
3.280000	9.849454	1.389957	-181.182151	0.285111	0.756973	-1.210616	43.773283	-19.977570	-20.809959	-58.686805	18.914884	7.180240	0.000000	43.923334	-25.440496	-20.391542	-58.929516	19.461033	13.846133	0.000000	-5.403930	1.817132	1.803941
3.285000	9.891704	1.379276	-181.147838	0.285700	0.753740	-1.210358	44.348921	-20.204744	-20.633612	-59.606076	19.312787	7.176978	0.000000	44.540094	-25.574719	-20.137994	-59.863563	19.867094	13.836132	0.000000	-5.484904	1.821794	1.779035
3.290000	9.937562	1.405315	-181.149997	0.286323	0.750444	-1.210223	44.945544	-20.371441	-20.459093	-60.541854	19.722507	7.173961	0.000000	45.172850	-25.766470	-19.862217	-60.801298	20.278605	13.832929	0.000000	-5.555568	1.855576	1.823141
3.295000	10.000280	1.464837	-181.160014	0.286896	0.747135	-1.210081	45.538864	-20.511056	-20.323505	-61.467213	20.099430	7.181955	0.000000	45.828970	-25.989517	-19.570524	-61.742501	20.679444	13.817717	0.000000	-5.606529	1.933707	1.867910
3.300000	10.024735	1.482422	-181.118516	0.287481	0.743833	-1.209991	46.079120	-20.698792	-20.168813	-62.373774	20.499988	7.157636	0.000000	46.435034	-26.146092	-19.285468	-62.642674	21.106793	13.834114	0.000000	-5.704829	1.956278	1.838361
3.305000	10.029514	1.483183	-181.038364	0.288184	0.740415	-1.210029	46.606681	-20.916046	-20.006211	-63.299313	20.951008	7.167905	0.000000	47.055873	-26.274276	-18.971638	-63.558423	21.518919	13.855359	0.000000	-5.838388	1.959336	1.681137
3.310000	10.082128	1.538045	-180.994471	0.288823	0.737009	-1.210046	47.168695	-21.071153	-19.888198	-64.210193	21.307239	7.178993	0.000000	47.718873	-26.462896	-18.648978	-64.459480	21.944943	13.878931	0.000000	-5.913329	1.996083	1.661717
3.315000	10.158743	1.573580	-180.971734	0.289445	0.733594	-1.209917	47.767446	-21.230833	-19.717823	-65.098858	21.700204	7.168406	0.000000	48.406088	-26.632131	-18.344423	-65.394384	22.275069	13.818667	0.000000	-5.967973	2.051984	1.626361
3.320000	10.235299	1.612604	-180.919335	0.290060	0.730160	-1.209828	48.366323	-21.411453	-19.577127	-66.019181	22.096755	7.150858	0.000000	49.086322	-26.769468	-18.003062	-66.264780	22.652277	13.788666	0.000000	-6.020166	2.067082	1.650228
3.325000	10.236819	1.630142	-180.892340	0.290702	0.726686	-1.209811	48.896328	-21.594470	-19.409183	-66.918964	22.573278	7.213190	0.000000	49.674495	-26.920753	-17.706027	-67.146850	23.045093	13.771022	0.000000	-6.154593	2.092147	1.601731
3.330000	10.377981	1.685716	-180.886756	0.291384	0.723124	-1.209747	49.564403	-21.724054	-19.270589	-67.797453	22.862581	7.180391	0.000000	50.418498	-27.110193	-17.397760	-68.023253	23.430407	13.795064	0.000000	-6.143450	2.155301	1.601358
3.335000	10.389945	1.682392	-180.803130	0.292068	0.719598	-1.209821	50.100816	-21.934524	-19.100217	-68.695514	23.244982	7.170528	0.000000	51.035105	-27.215972	-17.093657	-68.889808	23.807812	13.838823	0.000000	-6.279852	2.112696	1.532816
3.340000	10.501343	1.723930	-180.746176	0.292640	0.716125	-1.209790	50.701243	-22.104424	-18.975186	-69.544707	23.606482	7.170992	0.000000	51.732313	-27.355286	-16.781583	-69.706580	24.210179	13.906214	0.000000	-6.301293	2.147099	1.494004
3.345000	10.576126	1.771894	-180.721746	0.293322	0.712520	-1.209783	51.306870	-22.251031	-18.823738	-70.433719	23.996493	7.192391	0.000000	52.422408	-27.533300	-16.476457	-70.575132	24.602829	13.940985	0.000000	-6.355097	2.165171	1.531088
3.350000	10.593483	1.794974	-180.666413	0.293953	0.709007	-1.209824	51.849033	-22.421180	-18.659361	-71.319700	24.410053	7.153811	0.000000	53.030220	-27.664222	-16.164143	-71.406104	25.066877	13.839570	0.000000	-6.472426	2.152272	1.520098
